:FULLY-SPECIFIED
:FORCE-ALL-JOINTS-BE-3DOF
:DEGREES
544
root 8.26395 14.0045 -3.49876 179.615 47.0323 177.292
lfemur -33.4275 -5.88812 -15.4748
ltibia 88.0387 -0 0
lfoot -39.0782 -12.3564 0.0763387
ltoes -3.81209 0 0
rfemur -49.0304 -7.53324 -2.97034
rtibia 64.277 -0 0
rfoot -9.41857 0.825765 0.114502
rtoes -38.9689 0 0
lowerback 12.9359 0.624563 1.67424
upperback 6.83987 1.95745 6.80488
thorax -0.245268 1.25887 5.95191
lowerneck -2.06026 -15.6538 -5.8307
upperneck 8.47596 -21.2482 8.59972
head 4.4264 -10.2898 2.29612
lclavicle 9.04488e-14 6.62538e-15 3.20452e-31
lhumerus -45.8074 -12.0943 103.664
lradius 55.5102 -0 0
lwrist 30.8413 0 0
lhand -24.1626 -2.88676 -0.0175269
lfingers 7.12502 -0 0
lthumb 2.32005 27.0714 -0.0178627
rclavicle 9.04488e-14 6.62538e-15 3.20452e-31
rhumerus 6.6391 19.3746 -88.5342
rradius 134.828 -0 0
rwrist -44.987 0 0
rhand -28.7968 -22.7508 0.00655225
rfingers 7.12502 -0 0
rthumb -2.15544 -52.7116 0.00653351
545
root 8.30642 13.9613 -3.47225 179.47 46.6895 177.205
lfemur -33.5459 -5.88728 -15.2485
ltibia 88.5257 -0 0
lfoot -39.355 -12.8919 0.0362223
ltoes -3.69931 0 0
rfemur -49.0677 -7.85576 -2.9054
rtibia 64.9499 -0 0
rfoot -10.1413 0.519794 0.0543113
rtoes -39.0358 0 0
lowerback 12.963 0.613757 1.66777
upperback 6.91148 1.94876 6.80509
thorax -0.183981 1.25722 5.95807
lowerneck -1.9366 -15.6457 -5.80392
upperneck 8.32826 -21.2423 8.71288
head 4.36988 -10.2889 2.34132
lclavicle 9.48486e-14 6.48269e-15 1.52088e-31
lhumerus -45.9156 -11.6031 103.323
lradius 55.3531 -0 0
lwrist 31.2461 0 0
lhand -24.4244 -2.75588 -0.0083179
lfingers 7.12502 -0 0
lthumb 2.0673 27.2096 -0.0084773
rclavicle 9.48486e-14 6.48269e-15 1.52088e-31
rhumerus 6.34136 19.5891 -88.9907
rradius 134.77 -0 0
rwrist -44.8814 0 0
rhand -29.0485 -22.8017 0.0031096
rfingers 7.12502 -0 0
rthumb -2.39856 -52.7642 0.00310072
546
root 8.33325 13.934 -3.4555 179.379 46.4728 177.151
lfemur -33.6208 -5.8865 -15.1055
ltibia 88.8334 -0 0
lfoot -39.5297 -13.2302 0.00954279
ltoes -3.62806 0 0
rfemur -49.0914 -8.0595 -2.86424
rtibia 65.3749 -0 0
rfoot -10.5976 0.326936 0.014307
rtoes -39.0781 0 0
lowerback 12.98 0.606931 1.66368
upperback 6.95673 1.94327 6.80523
thorax -0.145263 1.25618 5.96195
lowerneck -1.85848 -15.6406 -5.78699
upperneck 8.23496 -21.2384 8.78435
head 4.33417 -10.2883 2.36988
lclavicle 9.76283e-14 6.39253e-15 4.00732e-32
lhumerus -45.9854 -11.2931 103.107
lradius 55.2538 -0 0
lwrist 31.5018 0 0
lhand -24.5898 -2.67321 -0.00219158
lfingers 7.12502 -0 0
lthumb 1.90763 27.2969 -0.00223359
rclavicle 9.76283e-14 6.39253e-15 4.00732e-32
rhumerus 6.15212 19.7236 -89.28
rradius 134.733 -0 0
rwrist -44.8147 0 0
rhand -29.2076 -22.8339 0.000819319
rfingers 7.12502 -0 0
rthumb -2.55216 -52.7974 0.000816978
547
root 8.3426 13.9245 -3.44966 -180.653 46.3973 -182.868
lfemur -33.6469 -5.88619 -15.0556
ltibia 88.9407 0 0
lfoot -39.5906 -13.3481 0
ltoes -3.60323 0 0
rfemur -49.0997 -8.13052 -2.84987
rtibia 65.5231 0 0
rfoot -10.7566 0.259778 0
rtoes -39.0929 0 0
lowerback 12.986 0.604552 1.66225
upperback 6.9725 1.94136 6.80527
thorax -0.131767 1.25582 5.96331
lowerneck -1.83125 -15.6388 -5.78109
upperneck 8.20244 -21.237 8.80926
head 4.32172 -10.2881 2.37983
lclavicle 9.85972e-14 6.36111e-15 0
lhumerus -46.01 -11.1851 103.032
lradius 55.2192 0 0
lwrist 31.5909 0 0
lhand -24.6475 -2.6444 0
lfingers 7.12502 0 0
lthumb 1.85197 27.3273 0
rclavicle 9.85972e-14 6.36111e-15 0
rhumerus 6.08594 19.7702 -89.381
rradius 134.72 0 0
rwrist -44.7914 0 0
rhand -29.263 -22.8451 0
rfingers 7.12502 0 0
rthumb -2.6057 -772.809 0
548
root 8.33756 13.9378 -3.45037 179.384 46.5287 177.139
lfemur -33.5614 -5.82887 -15.0795
ltibia 88.7183 -0 0
lfoot -39.5695 -13.2586 0.00249641
ltoes -3.60637 0 0
rfemur -49.0868 -8.12012 -2.78247
rtibia 65.3208 -0 0
rfoot -10.6028 0.326623 0.013757
rtoes -39.0804 0 0
lowerback 12.9532 0.596539 1.64153
upperback 6.9468 1.92365 6.78757
thorax -0.138694 1.24515 5.95852
lowerneck -1.8455 -15.6286 -5.77205
upperneck 8.21051 -21.2226 8.7879
head 4.3224 -10.2812 2.37271
lclavicle 9.81651e-14 6.08353e-15 -1.57857e-31
lhumerus -46.0055 -11.1882 103.006
lradius 55.2158 -0 0
lwrist 31.5236 0 0
lhand -24.6335 -2.66674 -0.000412967
lfingers 7.12502 -0 0
lthumb 1.86553 27.3048 -0.000402106
rclavicle 9.81651e-14 6.08353e-15 -1.57857e-31
rhumerus 6.21368 19.769 -89.2876
rradius 134.716 -0 0
rwrist -44.7857 0 0
rhand -29.247 -22.8372 0.000166895
rfingers 7.12502 -0 0
rthumb -2.59022 -52.8012 0.000159045
549
root 8.32309 13.9759 -3.45239 179.49 46.9057 177.16
lfemur -33.3164 -5.66424 -15.1475
ltibia 88.0802 -0 0
lfoot -39.509 -13.0017 0.00947513
ltoes -3.61536 0 0
rfemur -49.0496 -8.09037 -2.58913
rtibia 64.7403 -0 0
rfoot -10.1615 0.518569 0.0522226
rtoes -39.0446 0 0
lowerback 12.8591 0.573485 1.5821
upperback 6.8731 1.87279 6.73684
thorax -0.158563 1.21454 5.94479
lowerneck -1.88637 -15.5994 -5.74614
upperneck 8.23362 -21.1813 8.72665
head 4.32433 -10.2616 2.35229
lclavicle 9.69255e-14 5.28719e-15 -5.99109e-31
lhumerus -45.9927 -11.197 102.931
lradius 55.206 -0 0
lwrist 31.3307 0 0
lhand -24.5932 -2.73083 -0.00156738
lfingers 7.12502 -0 0
lthumb 1.90442 27.2402 -0.00152616
rclavicle 9.69255e-14 5.28719e-15 -5.99109e-31
rhumerus 6.58012 19.7646 -89.0198
rradius 134.703 -0 0
rwrist -44.7695 0 0
rhand -29.201 -22.8145 0.000633423
rfingers 7.12502 -0 0
rthumb -2.5458 -52.7788 0.000603626
550
root 8.30019 14.0362 -3.4556 179.66 47.5022 177.195
lfemur -32.9292 -5.40308 -15.2537
ltibia 87.0703 -0 0
lfoot -39.4132 -12.5951 0.0199665
ltoes -3.6296 0 0
rfemur -48.9906 -8.04353 -2.28308
rtibia 63.8216 -0 0
rfoot -9.46269 0.82305 0.110095
rtoes -38.9879 0 0
lowerback 12.7101 0.536795 1.4881
upperback 6.75654 1.79215 6.65668
thorax -0.189998 1.16608 5.92307
lowerneck -1.95102 -15.5532 -5.70518
upperneck 8.2701 -21.1159 8.62976
head 4.32738 -10.2304 2.31998
lclavicle 9.49634e-14 4.0267e-15 -1.26233e-30
lhumerus -45.9724 -11.211 102.811
lradius 55.1905 -0 0
lwrist 31.0253 0 0
lhand -24.5294 -2.83229 -0.00330262
lfingers 7.12502 -0 0
lthumb 1.96599 27.1379 -0.00321576
rclavicle 9.49634e-14 4.0267e-15 -1.26233e-30
rhumerus 7.16 19.7543 -88.5961
rradius 134.683 -0 0
rwrist -44.7438 0 0
rhand -29.1282 -22.7786 0.00133465
rfingers 7.12502 -0 0
rthumb -2.4755 -52.7434 0.00127187
551
root 8.26985 14.1162 -3.45985 179.89 48.2927 177.246
lfemur -32.4171 -5.05599 -15.3917
ltibia 85.732 -0 0
lfoot -39.2862 -12.0563 0.0328186
ltoes -3.64846 0 0
rfemur -48.912 -7.98195 -1.87758
rtibia 62.6042 -0 0
rfoot -8.53643 1.22746 0.181033
rtoes -38.9128 0 0
lowerback 12.5129 0.487814 1.36374
upperback 6.60229 1.68505 6.55073
thorax -0.231617 1.10186 5.89435
lowerneck -2.0366 -15.4919 -5.65101
upperneck 8.31822 -21.0292 8.50152
head 4.33139 -10.1891 2.27717
lclavicle 9.23639e-14 2.35666e-15 -2.07456e-30
lhumerus -45.9454 -11.2294 102.653
lradius 55.1699 -0 0
lwrist 30.6206 0 0
lhand -24.445 -2.96671 -0.00542785
lfingers 7.12502 -0 0
lthumb 2.04757 27.0023 -0.0052851
rclavicle 9.23639e-14 2.35666e-15 -2.07456e-30
rhumerus 7.9283 19.7345 -88.0347
rradius 134.657 -0 0
rwrist -44.7097 0 0
rhand -29.0318 -22.731 0.00219346
rfingers 7.12502 -0 0
rthumb -2.38235 -52.6964 0.00209027
552
root 8.23306 14.2131 -3.46501 -179.826 49.2508 177.316
lfemur -31.7975 -4.63338 -15.5547
ltibia 84.1094 -0 0
lfoot -39.132 -11.4031 0.046799
ltoes -3.67134 0 0
rfemur -48.8161 -7.90803 -1.38587
rtibia 61.1281 -0 0
rfoot -7.41248 1.71935 0.258274
rtoes -38.8217 0 0
lowerback 12.274 0.427843 1.21315
upperback 6.41553 1.55482 6.42265
thorax -0.282037 1.02396 5.85957
lowerneck -2.14026 -15.4174 -5.58547
upperneck 8.37626 -20.9239 8.34622
head 4.33621 -10.1391 2.22528
lclavicle 8.92118e-14 3.31679e-16 -2.95777e-30
lhumerus -45.9126 -11.2517 102.462
lradius 55.145 -0 0
lwrist 30.13 0 0
lhand -24.3425 -3.12972 -0.00773896
lfingers 7.12502 -0 0
lthumb 2.1465 26.838 -0.00753543
rclavicle 8.92118e-14 3.31679e-16 -2.95777e-30
rhumerus 8.85924 19.7009 -87.3548
rradius 134.625 -0 0
rwrist -44.6684 0 0
rhand -28.9148 -22.6733 0.00312734
rfingers 7.12502 -0 0
rthumb -2.26941 -52.6395 0.00298022
553
root 8.19081 14.3244 -3.47094 -179.49 50.3509 177.407
lfemur -31.088 -4.14604 -15.736
ltibia 82.2461 -0 0
lfoot -38.9547 -10.6527 0.0606869
ltoes -3.69761 0 0
rfemur -48.7053 -7.82416 -0.821176
rtibia 59.4331 -0 0
rfoot -6.12119 2.28589 0.335039
rtoes -38.717 0 0
lowerback 11.9997 0.358202 1.04054
upperback 6.20144 1.40475 6.27611
thorax -0.339876 0.93446 5.81973
lowerneck -2.25914 -15.3318 -5.51042
upperneck 8.44248 -20.8028 8.16817
head 4.34169 -10.0816 2.16571
lclavicle 8.55922e-14 -1.99363e-15 -3.83456e-30
lhumerus -45.8749 -11.2771 102.242
lradius 55.1164 -0 0
lwrist 29.5666 0 0
lhand -24.2249 -3.31691 -0.0100334
lfingers 7.12502 -0 0
lthumb 2.26012 26.6493 -0.00976954
rclavicle 8.55922e-14 -1.99363e-15 -3.83456e-30
rhumerus 9.92751 19.6495 -86.5749
rradius 134.588 -0 0
rwrist -44.621 0 0
rhand -28.7805 -22.607 0.00405446
rfingers 7.12502 -0 0
rthumb -2.13971 -52.5741 0.00386372
554
root 8.1441 14.4475 -3.4775 -179.105 51.5667 177.523
lfemur -30.3058 -3.6046 -15.9294
ltibia 80.186 -0 0
lfoot -38.7585 -9.82307 0.0733356
ltoes -3.72665 0 0
rfemur -48.5817 -7.73268 -0.196729
rtibia 57.559 -0 0
rfoot -4.69261 2.91414 0.405025
rtoes -38.6014 0 0
lowerback 11.6967 0.280241 0.850079
upperback 5.96518 1.23819 6.11474
thorax -0.403754 0.835461 5.77578
lowerneck -2.39038 -15.2369 -5.42768
upperneck 8.51517 -20.6687 7.97164
head 4.34768 -10.018 2.09986
lclavicle 8.15901e-14 -4.56467e-15 -4.63301e-30
lhumerus -45.833 -11.305 101.999
lradius 55.0847 -0 0
lwrist 28.9436 0 0
lhand -24.0948 -3.52389 -0.012123
lfingers 7.12502 -0 0
lthumb 2.38574 26.4406 -0.0118041
rclavicle 8.15901e-14 -4.56467e-15 -4.63301e-30
rhumerus 11.1071 19.5768 -85.7143
rradius 134.548 -0 0
rwrist -44.5685 0 0
rhand -28.632 -22.5338 0.00489876
rfingers 7.12502 -0 0
rthumb -1.9963 -52.5018 0.0046683
555
root 8.09391 14.5797 -3.48456 -178.676 52.8723 177.665
lfemur -29.468 -3.02008 -16.1288
ltibia 77.9727 -0 0
lfoot -38.5475 -8.93168 0.0837584
ltoes -3.75785 0 0
rfemur -48.448 -7.63589 0.47423
rtibia 55.5456 -0 0
rfoot -3.15708 3.59082 0.462732
rtoes -38.4771 0 0
lowerback 11.3715 0.195362 0.645919
upperback 5.7119 1.0585 5.94216
thorax -0.472293 0.729047 5.72869
lowerneck -2.53117 -15.1348 -5.33908
upperneck 8.59264 -20.5244 7.76089
head 4.35402 -9.94974 2.02913
lclavicle 7.72905e-14 -7.32684e-15 -5.2907e-30
lhumerus -45.7879 -11.3349 101.738
lradius 55.0507 -0 0
lwrist 28.2743 0 0
lhand -23.9551 -3.74626 -0.0138442
lfingers 7.12502 -0 0
lthumb 2.52072 26.2164 -0.0134801
rclavicle 7.72905e-14 -7.32684e-15 -5.2907e-30
rhumerus 12.3723 19.4802 -84.7923
rradius 134.504 -0 0
rwrist -44.5122 0 0
rhand -28.4725 -22.455 0.00559424
rfingers 7.12502 -0 0
rthumb -1.84223 -52.4241 0.00533105
556
root 8.04125 14.7185 -3.49197 -178.205 54.2417 177.838
lfemur -28.5915 -2.40362 -16.3286
ltibia 75.65 -0 0
lfoot -38.326 -7.99627 0.0911651
ltoes -3.79059 0 0
rfemur -48.3064 -7.53598 1.17852
rtibia 53.4327 -0 0
rfoot -1.54503 4.30233 0.503766
rtoes -38.3467 0 0
lowerback 11.0306 0.105044 0.432189
upperback 5.4467 0.869115 5.76191
thorax -0.544125 0.617313 5.67941
lowerneck -2.67866 -15.0274 -5.24643
upperneck 8.67325 -20.3726 7.54015
head 4.36059 -9.87806 1.95493
lclavicle 7.27784e-14 -1.02255e-14 -5.75799e-30
lhumerus -45.7404 -11.3659 101.463
lradius 55.015 -0 0
lwrist 27.572 0 0
lhand -23.8084 -3.97963 -0.0150673
lfingers 7.12502 -0 0
lthumb 2.66238 25.9811 -0.014671
rclavicle 7.27784e-14 -1.02255e-14 -5.75799e-30
rhumerus 13.6972 19.3581 -83.828
rradius 134.459 -0 0
rwrist -44.453 0 0
rhand -28.3051 -22.3724 0.00608839
rfingers 7.12502 -0 0
rthumb -1.68054 -52.3426 0.00580195
